<?xml version="1.0" encoding="UTF-8" standalone="no"?>
<!-- Created with Inkscape (http://www.inkscape.org/) -->

<svg
   version="1.1"
   id="svg1"
   width="1024"
   height="1024"
   viewBox="0 0 1024 1024"
   xmlns="http://www.w3.org/2000/svg"
   xmlns:svg="http://www.w3.org/2000/svg">
  <defs
     id="defs1" />
  <g
     id="g1">
    <path
       style="fill:#f9be23;stroke-width:2.31283"
       d="m 160.49326,925.90142 c -0.89343,-0.33311 -4.79169,-1.66628 -8.6628,-2.96262 -38.90872,-13.02955 -50.51277,-65.83535 -21.18869,-96.4219 8.71548,-9.0907 13.18989,-11.53678 31.34103,-17.13364 2.88678,-0.89013 3.62334,-2.44016 10.09553,-21.24509 3.83986,-11.15666 8.45739,-24.35129 10.2612,-29.32138 7.95989,-21.93227 11.40453,-31.62556 18.06334,-50.83032 2.36948,-6.83386 7.55826,-21.57465 11.53061,-32.75734 3.97235,-11.18265 8.91651,-25.16099 10.98704,-31.06295 5.97848,-17.04156 7.54121,-21.45144 11.00783,-31.06298 1.79253,-4.97008 5.77286,-16.03955 8.84514,-24.59883 l 5.58598,-15.56231 -6.95935,-7.84035 c -30.45677,-34.31238 -22.78622,-89.88572 15.47477,-112.11527 16.16937,-9.39434 29.39452,-11.47143 51.54405,-8.09532 4.90197,0.74718 2.1056,4.3785 43.75015,-56.81293 6.25152,-9.18581 11.96099,-17.46389 12.68772,-18.3958 1.74847,-2.24201 19.89288,-28.82474 21.97087,-32.1887 0.89343,-1.44632 10.39624,-15.3561 21.11733,-30.91061 10.72109,-15.55451 22.53885,-32.75429 26.26161,-38.22176 3.72279,-5.46746 7.6964,-11.21349 8.83024,-12.7689 2.06152,-2.82801 2.06152,-2.82801 -3.29695,-10.16607 -43.84346,-60.04064 -3.75815,-145.10947 68.37703,-145.10947 72.07572,0 112.223,85.07312 68.43886,145.02372 l -5.29663,7.25232 8.76841,12.78457 c 4.8226,7.03151 17.5402,25.54474 28.26129,41.14052 10.72113,15.59576 20.2239,29.52383 21.11733,30.95125 0.89342,1.42742 3.0015,4.55752 4.68461,6.95576 1.68309,2.39826 5.98141,8.68103 9.55179,13.96175 3.5704,5.28071 7.40677,10.87204 8.52526,12.42521 1.11851,1.55312 6.81031,9.81402 12.64846,18.35755 42.56345,62.28705 38.07601,56.47223 43.00131,55.72135 22.14467,-3.37612 35.37266,-1.29839 51.54137,8.09556 38.18907,22.18776 45.99402,78.59419 15.49481,111.98116 -7.2817,7.97117 -7.37551,8.15131 -5.80989,11.15773 0.56178,1.07878 3.03809,7.8069 5.50289,14.95138 2.46481,7.14448 5.95219,17.05641 7.74972,22.02649 1.7975,4.97007 4.16217,11.578 5.25478,14.68431 1.09263,3.10629 6.92871,19.60536 12.96909,36.6646 6.04038,17.05922 12.92567,36.62889 15.30063,43.48815 2.37498,6.85926 5.23295,15.01292 6.35109,18.1192 3.72252,10.34174 17.12925,48.34715 23.09528,65.47058 5.37855,15.43735 6.15655,16.98216 8.9928,17.85638 18.13272,5.58908 22.61792,8.04136 31.33191,17.13048 35.54733,37.07773 10.719,99.4069 -39.59794,99.4069 -49.55165,0 -74.39578,-59.62872 -40.90636,-98.17993 5.14009,-5.91697 5.03423,-7.80346 -1.26906,-22.61499 -0.52877,-1.24252 -1.19701,-3.27574 -1.485,-4.51825 -0.28798,-1.24252 -1.82259,-5.81725 -3.41022,-10.16607 -1.58763,-4.34883 -4.51415,-12.48168 -6.50337,-18.07303 -1.98921,-5.59132 -5.16837,-14.48664 -7.06478,-19.76733 -1.89638,-5.28069 -3.85016,-10.87204 -4.34173,-12.42519 -0.49155,-1.55316 -3.79703,-10.95676 -7.34549,-20.89692 -3.5485,-9.94014 -10.19874,-28.74738 -14.77834,-41.79383 -13.06936,-37.2323 -15.65697,-44.50046 -22.11806,-62.12594 -1.82189,-4.97009 -4.67311,-13.22977 -6.33602,-18.35484 -3.02347,-9.31835 -3.02347,-9.31835 -8.65608,-9.3189 -5.10353,-5e-4 -10.45514,-1.13585 -20.69331,-4.39008 -37.57801,-11.94431 -56.37536,-61.95467 -37.83495,-100.65981 5.67116,-11.83916 6.16915,-9.39161 -5.26266,-25.86553 -5.29708,-7.63343 -10.36206,-15.0597 -11.25549,-16.5028 -2.09918,-3.39065 -20.24055,-29.96406 -21.97087,-32.18284 -0.72675,-0.93187 -6.43622,-9.20737 -12.68772,-18.38997 -6.2515,-9.18263 -20.13816,-29.43224 -30.85929,-44.99916 -10.72109,-15.56693 -20.22388,-29.48687 -21.11731,-30.93319 -2.51686,-4.07443 -20.35184,-30.06604 -23.36168,-34.04592 -2.68595,-3.55159 -2.68595,-3.55159 -7.80138,-1.77445 -7.15695,2.48639 -34.46426,2.49191 -41.60922,0.01 -5.95203,-2.06885 -5.29954,-2.63595 -16.57026,14.40243 -3.5737,5.40249 -8.20326,12.20081 -10.28793,15.10735 -2.08466,2.90654 -4.27762,6.10655 -4.87323,7.11115 -0.59563,1.00457 -9.85476,14.56907 -20.57585,30.1433 -10.7211,15.57424 -24.59899,35.82256 -30.83976,44.99623 -6.24074,9.17369 -11.84496,17.25277 -12.45381,17.95347 -0.60884,0.70072 -4.03091,5.71737 -7.60461,11.14815 -3.57369,5.43075 -8.32509,12.33996 -10.55866,15.35379 -2.23356,3.01384 -4.06101,5.73382 -4.06101,6.04444 0,0.3106 -2.82866,4.51909 -6.28587,9.35213 -3.45724,4.83305 -8.34441,11.88 -10.8604,15.6599 l -4.57452,6.87251 4.92247,10.07092 c 13.71297,28.0554 9.40116,60.43898 -11.02446,82.79856 -7.28171,7.97115 -7.37552,8.1513 -5.80989,11.15771 0.56178,1.07878 3.03807,7.80691 5.50289,14.95138 2.46481,7.1445 5.95219,17.0564 7.74972,22.02649 1.7975,4.97008 4.16217,11.57801 5.25478,14.68432 1.09262,3.10628 6.92871,19.60537 12.96909,36.66459 6.04038,17.05923 12.92567,36.62888 15.30063,43.48816 2.37498,6.85926 5.23295,15.01291 6.35109,18.11921 3.72252,10.34174 17.12924,48.34714 23.09528,65.47055 5.37855,15.43738 6.15655,16.98219 8.99279,17.8564 18.13273,5.58909 22.61793,8.04134 31.33192,17.13047 35.54733,37.07775 10.719,99.40691 -39.59794,99.40691 -49.55165,0 -74.39578,-59.62872 -40.90637,-98.17993 5.1401,-5.91698 5.03424,-7.80345 -1.26905,-22.61501 -0.52877,-1.24251 -1.19701,-3.27573 -1.48501,-4.51825 -0.28797,-1.24251 -1.82258,-5.81725 -3.41021,-10.16607 -1.58763,-4.34882 -4.51416,-12.48167 -6.50337,-18.07301 -1.98922,-5.59131 -5.16837,-14.48664 -7.06478,-19.76734 -1.89638,-5.2807 -3.85016,-10.87203 -4.34173,-12.42519 -0.49155,-1.55316 -3.79703,-10.95675 -7.3455,-20.89692 -3.54849,-9.94014 -10.19874,-28.74737 -14.77833,-41.79383 -13.10104,-37.32254 -16.00517,-45.47556 -21.69661,-60.91109 -1.58621,-4.3019 -4.12103,-11.67231 -5.6329,-16.37867 -3.68056,-11.45719 -4.40823,-12.71318 -7.12424,-12.29662 -2.57469,0.39486 -2.31518,-0.21718 -13.79909,32.54346 -4.24666,12.11458 -8.63601,24.56801 -9.75414,27.67429 -1.11812,3.10631 -3.97611,11.25994 -6.35107,18.11923 -2.37499,6.85926 -9.26025,26.42893 -15.30063,43.48816 -6.04038,17.05921 -11.87647,33.5583 -12.96909,36.66458 -1.0926,3.10631 -3.44455,9.71424 -5.22651,14.68432 -1.78199,4.97009 -4.7878,13.3571 -6.67958,18.63779 -1.8918,5.2807 -4.38081,12.0835 -5.53116,15.11734 -1.15036,3.03382 -2.09155,6.21762 -2.09155,7.0751 0,0.85747 -0.48301,2.44166 -1.07333,3.52044 -5.9803,10.92847 -6.3193,16.58301 -1.33791,22.31729 32.87681,37.84602 9.435,96.56505 -39.28195,98.39673 -5.36056,0.20144 -10.47745,0.0938 -11.37087,-0.23918 z"
       id="path17" />
  </g>
</svg>
